<mxfile host="65bd71144e">
    <diagram id="xehdR1EZMwrTscf89Ukt" name="Page-1">
        <mxGraphModel dx="1139" dy="820" grid="1" gridSize="10" guides="1" tooltips="1" connect="1" arrows="1" fold="1" page="1" pageScale="1" pageWidth="827" pageHeight="1169" math="0" shadow="0">
            <root>
                <mxCell id="0"/>
                <mxCell id="1" parent="0"/>
                <mxCell id="2" value="&lt;div style=&quot;color: rgb(238 , 255 , 255) ; background-color: rgb(33 , 33 , 33) ; font-family: &amp;#34;consolas&amp;#34; , &amp;#34;courier new&amp;#34; , monospace ; font-weight: normal ; font-size: 14px ; line-height: 19px&quot;&gt;&lt;div&gt;&lt;span style=&quot;color: #eeffff&quot;&gt;Uma pizzaria de tele-entrega apresenta um cardápio composto por diversos tipos de pizza, cujos dados são: número do item, nome da pizza, lista de ingredientes e preços das pizzas pequena, média e grande, como por exemplo: (12, francesa, (queijo, presunto, champignon, aspargo), 10.00, 15.00, 18.00). Na pizzaria trabalham funcionários que emitem pedidos de pizzas. Cada pedido possui um número e uma data de emissão, além do nome, telefone e endereço do cliente que solicitou o pedido. Um pedido, emitido por apenas um funcionário, é composto por vários itens: cada item possui um número e se refere a uma determinada pizza do cardápio, em um determinado tamanho (pequena, média ou grande) e em uma certa quantidade. Dos funcionários entregadores (ou seja, responsáveis pela entrega de um ou mais pedidos),deve-se saber o número do telefone celular para um eventual contato durante uma entrega. Uma entrega destina-se a um bairro, e para cada bairro existe um tempo máximo de espera para a entrega de um pedido. Defina outros atributos que julgar relevante&lt;/span&gt;&lt;/div&gt;&lt;/div&gt;" style="text;whiteSpace=wrap;html=1;" parent="1" vertex="1">
                    <mxGeometry x="80" width="747" height="250" as="geometry"/>
                </mxCell>
                <mxCell id="29" style="edgeStyle=none;html=1;endArrow=none;endFill=0;" edge="1" parent="1" source="3" target="22">
                    <mxGeometry relative="1" as="geometry">
                        <mxPoint x="142.76902180402703" y="490" as="sourcePoint"/>
                    </mxGeometry>
                </mxCell>
                <mxCell id="3" value="Pizza" style="whiteSpace=wrap;html=1;align=center;" parent="1" vertex="1">
                    <mxGeometry x="120" y="520" width="100" height="40" as="geometry"/>
                </mxCell>
                <mxCell id="52" style="edgeStyle=none;html=1;endArrow=none;endFill=0;" edge="1" parent="1" source="4" target="53">
                    <mxGeometry relative="1" as="geometry">
                        <mxPoint x="637.0377889910483" y="610.6837639866603" as="targetPoint"/>
                    </mxGeometry>
                </mxCell>
                <mxCell id="4" value="Funcionário" style="whiteSpace=wrap;html=1;align=center;" parent="1" vertex="1">
                    <mxGeometry x="540" y="520" width="100" height="40" as="geometry"/>
                </mxCell>
                <mxCell id="54" style="edgeStyle=none;html=1;endArrow=none;endFill=0;" edge="1" parent="1" source="5" target="6">
                    <mxGeometry relative="1" as="geometry"/>
                </mxCell>
                <mxCell id="5" value="Pedido" style="shape=associativeEntity;whiteSpace=wrap;html=1;align=center;" parent="1" vertex="1">
                    <mxGeometry x="320" y="510" width="140" height="60" as="geometry"/>
                </mxCell>
                <mxCell id="6" value="Data" style="ellipse;whiteSpace=wrap;html=1;align=center;" vertex="1" parent="1">
                    <mxGeometry x="340" y="600" width="100" height="40" as="geometry"/>
                </mxCell>
                <mxCell id="8" value="número" style="ellipse;whiteSpace=wrap;html=1;align=center;fontStyle=4;" vertex="1" parent="1">
                    <mxGeometry x="340" y="640" width="100" height="40" as="geometry"/>
                </mxCell>
                <mxCell id="10" value="Inclui" style="shape=rhombus;perimeter=rhombusPerimeter;whiteSpace=wrap;html=1;align=center;" vertex="1" parent="1">
                    <mxGeometry x="330" y="380" width="120" height="60" as="geometry"/>
                </mxCell>
                <mxCell id="50" style="edgeStyle=none;html=1;endArrow=none;endFill=0;" edge="1" parent="1" source="11" target="49">
                    <mxGeometry relative="1" as="geometry"/>
                </mxCell>
                <mxCell id="11" value="Cliente" style="whiteSpace=wrap;html=1;align=center;" vertex="1" parent="1">
                    <mxGeometry x="340" y="280" width="100" height="40" as="geometry"/>
                </mxCell>
                <mxCell id="12" style="edgeStyle=none;html=1;endArrow=none;endFill=0;" edge="1" parent="1">
                    <mxGeometry relative="1" as="geometry">
                        <mxPoint x="170.20819782095305" y="559" as="sourcePoint"/>
                        <mxPoint x="170.6246950475545" y="599.009758478252" as="targetPoint"/>
                    </mxGeometry>
                </mxCell>
                <mxCell id="13" style="edgeStyle=none;html=1;endArrow=none;endFill=0;" edge="1" parent="1" source="15" target="30">
                    <mxGeometry relative="1" as="geometry">
                        <mxPoint x="111" y="742.49" as="targetPoint"/>
                        <mxPoint x="148.46521463552108" y="670.0041021747888" as="sourcePoint"/>
                    </mxGeometry>
                </mxCell>
                <mxCell id="15" value="" style="ellipse;whiteSpace=wrap;html=1;aspect=fixed;" vertex="1" parent="1">
                    <mxGeometry x="147" y="599" width="40" height="40" as="geometry"/>
                </mxCell>
                <mxCell id="16" value="&lt;span&gt;Tipo&lt;/span&gt;" style="text;html=1;resizable=0;autosize=1;align=center;verticalAlign=middle;points=[];fillColor=none;strokeColor=none;rounded=0;" vertex="1" parent="1">
                    <mxGeometry x="172.5" y="569" width="40" height="20" as="geometry"/>
                </mxCell>
                <mxCell id="19" value="&lt;b&gt;&lt;font style=&quot;font-size: 16px&quot;&gt;D&lt;/font&gt;&lt;/b&gt;" style="text;html=1;resizable=0;autosize=1;align=center;verticalAlign=middle;points=[];fillColor=none;strokeColor=none;rounded=0;" vertex="1" parent="1">
                    <mxGeometry x="152" y="609" width="30" height="20" as="geometry"/>
                </mxCell>
                <mxCell id="20" style="edgeStyle=none;html=1;endArrow=none;endFill=0;" edge="1" parent="1">
                    <mxGeometry relative="1" as="geometry">
                        <mxPoint x="163" y="559" as="sourcePoint"/>
                        <mxPoint x="163" y="599" as="targetPoint"/>
                    </mxGeometry>
                </mxCell>
                <mxCell id="22" value="Tipo" style="ellipse;whiteSpace=wrap;html=1;align=center;" vertex="1" parent="1">
                    <mxGeometry y="480" width="100" height="40" as="geometry"/>
                </mxCell>
                <mxCell id="24" value="Ingredientes" style="ellipse;shape=doubleEllipse;margin=3;whiteSpace=wrap;html=1;align=center;" vertex="1" parent="1">
                    <mxGeometry y="440" width="100" height="40" as="geometry"/>
                </mxCell>
                <mxCell id="25" value="Preço" style="ellipse;whiteSpace=wrap;html=1;align=center;" vertex="1" parent="1">
                    <mxGeometry y="400" width="100" height="40" as="geometry"/>
                </mxCell>
                <mxCell id="27" value="Número" style="ellipse;whiteSpace=wrap;html=1;align=center;fontStyle=4;" vertex="1" parent="1">
                    <mxGeometry y="280" width="100" height="40" as="geometry"/>
                </mxCell>
                <mxCell id="28" value="Nome" style="ellipse;whiteSpace=wrap;html=1;align=center;" vertex="1" parent="1">
                    <mxGeometry y="320" width="100" height="40" as="geometry"/>
                </mxCell>
                <mxCell id="30" value="Grande" style="whiteSpace=wrap;html=1;align=center;" vertex="1" parent="1">
                    <mxGeometry x="10" y="698.49" width="100" height="40" as="geometry"/>
                </mxCell>
                <mxCell id="36" style="edgeStyle=none;html=1;endArrow=none;endFill=0;" edge="1" parent="1" source="31" target="15">
                    <mxGeometry relative="1" as="geometry"/>
                </mxCell>
                <mxCell id="31" value="Média" style="whiteSpace=wrap;html=1;align=center;" vertex="1" parent="1">
                    <mxGeometry x="117" y="698.49" width="100" height="40" as="geometry"/>
                </mxCell>
                <mxCell id="37" style="edgeStyle=none;html=1;endArrow=none;endFill=0;" edge="1" parent="1" source="33" target="15">
                    <mxGeometry relative="1" as="geometry"/>
                </mxCell>
                <mxCell id="33" value="Pequena" style="whiteSpace=wrap;html=1;align=center;" vertex="1" parent="1">
                    <mxGeometry x="220" y="698.49" width="100" height="40" as="geometry"/>
                </mxCell>
                <mxCell id="39" value="Nome" style="ellipse;whiteSpace=wrap;html=1;align=center;" vertex="1" parent="1">
                    <mxGeometry x="484" y="320" width="100" height="40" as="geometry"/>
                </mxCell>
                <mxCell id="40" value="Endereço" style="ellipse;whiteSpace=wrap;html=1;align=center;" vertex="1" parent="1">
                    <mxGeometry x="484" y="360" width="100" height="40" as="geometry"/>
                </mxCell>
                <mxCell id="41" value="Rua" style="ellipse;whiteSpace=wrap;html=1;align=center;" vertex="1" parent="1">
                    <mxGeometry x="624" y="320" width="100" height="40" as="geometry"/>
                </mxCell>
                <mxCell id="42" value="Logradouro" style="ellipse;whiteSpace=wrap;html=1;align=center;" vertex="1" parent="1">
                    <mxGeometry x="624" y="360" width="100" height="40" as="geometry"/>
                </mxCell>
                <mxCell id="43" value="CEP" style="ellipse;whiteSpace=wrap;html=1;align=center;" vertex="1" parent="1">
                    <mxGeometry x="624" y="400" width="100" height="40" as="geometry"/>
                </mxCell>
                <mxCell id="44" value="" style="endArrow=none;html=1;rounded=0;" edge="1" parent="1" source="40" target="43">
                    <mxGeometry relative="1" as="geometry">
                        <mxPoint x="624" y="260" as="sourcePoint"/>
                        <mxPoint x="784" y="260" as="targetPoint"/>
                    </mxGeometry>
                </mxCell>
                <mxCell id="45" value="" style="endArrow=none;html=1;rounded=0;" edge="1" parent="1" source="40" target="42">
                    <mxGeometry relative="1" as="geometry">
                        <mxPoint x="509.01387732552064" y="307.3237117209725" as="sourcePoint"/>
                        <mxPoint x="458.8069469178416" y="342.6351371575108" as="targetPoint"/>
                    </mxGeometry>
                </mxCell>
                <mxCell id="46" value="" style="endArrow=none;html=1;rounded=0;" edge="1" parent="1" source="40" target="41">
                    <mxGeometry relative="1" as="geometry">
                        <mxPoint x="489.2786404500042" y="298.9442719099991" as="sourcePoint"/>
                        <mxPoint x="478.7213595499958" y="301.0557280900007" as="targetPoint"/>
                    </mxGeometry>
                </mxCell>
                <mxCell id="47" value="Telefone" style="ellipse;whiteSpace=wrap;html=1;align=center;" vertex="1" parent="1">
                    <mxGeometry x="484" y="400" width="100" height="40" as="geometry"/>
                </mxCell>
                <mxCell id="49" value="CPF" style="ellipse;whiteSpace=wrap;html=1;align=center;fontStyle=4;" vertex="1" parent="1">
                    <mxGeometry x="484" y="280" width="100" height="40" as="geometry"/>
                </mxCell>
                <mxCell id="53" value="&#10;&#10;&lt;span style=&quot;color: rgb(240, 240, 240); font-family: helvetica; font-size: 12px; font-style: normal; font-weight: 400; letter-spacing: normal; text-align: center; text-indent: 0px; text-transform: none; word-spacing: 0px; background-color: rgb(42, 42, 42); display: inline; float: none;&quot;&gt;NúmeroCrachá&lt;/span&gt;&#10;&#10;" style="ellipse;whiteSpace=wrap;html=1;align=center;fontStyle=4;" vertex="1" parent="1">
                    <mxGeometry x="600" y="599" width="100" height="40" as="geometry"/>
                </mxCell>
                <mxCell id="55" style="edgeStyle=none;html=1;endArrow=none;endFill=0;entryX=0.527;entryY=0;entryDx=0;entryDy=0;entryPerimeter=0;" edge="1" parent="1" target="5">
                    <mxGeometry relative="1" as="geometry">
                        <mxPoint x="394" y="438" as="sourcePoint"/>
                        <mxPoint x="393.8146950475545" y="497.99975847825203" as="targetPoint"/>
                    </mxGeometry>
                </mxCell>
                <mxCell id="56" style="edgeStyle=none;html=1;endArrow=none;endFill=0;entryX=0.473;entryY=0;entryDx=0;entryDy=0;entryPerimeter=0;" edge="1" parent="1" target="5">
                    <mxGeometry relative="1" as="geometry">
                        <mxPoint x="386" y="438" as="sourcePoint"/>
                        <mxPoint x="386.19" y="497.9899999999998" as="targetPoint"/>
                    </mxGeometry>
                </mxCell>
                <mxCell id="57" value="" style="endArrow=none;html=1;rounded=0;" edge="1" parent="1" source="10" target="11">
                    <mxGeometry relative="1" as="geometry">
                        <mxPoint x="370" y="420" as="sourcePoint"/>
                        <mxPoint x="530" y="420" as="targetPoint"/>
                    </mxGeometry>
                </mxCell>
                <mxCell id="58" value="1" style="resizable=0;html=1;align=right;verticalAlign=bottom;" connectable="0" vertex="1" parent="57">
                    <mxGeometry x="1" relative="1" as="geometry">
                        <mxPoint x="-1" y="17" as="offset"/>
                    </mxGeometry>
                </mxCell>
                <mxCell id="59" style="edgeStyle=none;html=1;endArrow=none;endFill=0;entryX=0;entryY=0.5;entryDx=0;entryDy=0;exitX=1;exitY=0.5;exitDx=0;exitDy=0;" edge="1" parent="1" source="3" target="5">
                    <mxGeometry relative="1" as="geometry">
                        <mxPoint x="273.77" y="497" as="sourcePoint"/>
                        <mxPoint x="273.54999999999995" y="569.0000000000001" as="targetPoint"/>
                    </mxGeometry>
                </mxCell>
                <mxCell id="60" style="edgeStyle=none;html=1;endArrow=none;endFill=0;entryX=0.003;entryY=0.643;entryDx=0;entryDy=0;entryPerimeter=0;exitX=1;exitY=0.75;exitDx=0;exitDy=0;" edge="1" parent="1" source="3" target="5">
                    <mxGeometry relative="1" as="geometry">
                        <mxPoint x="265.7700000000001" y="497" as="sourcePoint"/>
                        <mxPoint x="265.99" y="569.0000000000001" as="targetPoint"/>
                    </mxGeometry>
                </mxCell>
                <mxCell id="61" style="edgeStyle=none;html=1;endArrow=none;endFill=0;entryX=0.01;entryY=0.358;entryDx=0;entryDy=0;exitX=1.004;exitY=0.399;exitDx=0;exitDy=0;exitPerimeter=0;entryPerimeter=0;" edge="1" parent="1" source="5" target="4">
                    <mxGeometry relative="1" as="geometry">
                        <mxPoint x="460" y="535.0000000000001" as="sourcePoint"/>
                        <mxPoint x="560" y="535.0000000000001" as="targetPoint"/>
                    </mxGeometry>
                </mxCell>
                <mxCell id="62" style="edgeStyle=none;html=1;endArrow=none;endFill=0;entryX=0.007;entryY=0.623;entryDx=0;entryDy=0;entryPerimeter=0;exitX=1.002;exitY=0.58;exitDx=0;exitDy=0;exitPerimeter=0;" edge="1" parent="1" source="5" target="4">
                    <mxGeometry relative="1" as="geometry">
                        <mxPoint x="460" y="545.0000000000001" as="sourcePoint"/>
                        <mxPoint x="560.42" y="543.58" as="targetPoint"/>
                    </mxGeometry>
                </mxCell>
                <mxCell id="63" value="Sabor" style="ellipse;whiteSpace=wrap;html=1;align=center;dashed=1;" vertex="1" parent="1">
                    <mxGeometry y="360" width="100" height="40" as="geometry"/>
                </mxCell>
                <mxCell id="64" value="1" style="text;html=1;resizable=0;autosize=1;align=center;verticalAlign=middle;points=[];fillColor=none;strokeColor=none;rounded=0;" vertex="1" parent="1">
                    <mxGeometry x="523" y="518" width="20" height="20" as="geometry"/>
                </mxCell>
                <mxCell id="65" value="N" style="text;html=1;resizable=0;autosize=1;align=center;verticalAlign=middle;points=[];fillColor=none;strokeColor=none;rounded=0;" vertex="1" parent="1">
                    <mxGeometry x="217" y="522" width="20" height="20" as="geometry"/>
                </mxCell>
                <mxCell id="66" value="N" style="text;html=1;resizable=0;autosize=1;align=center;verticalAlign=middle;points=[];fillColor=none;strokeColor=none;rounded=0;" vertex="1" parent="1">
                    <mxGeometry x="369" y="493" width="20" height="20" as="geometry"/>
                </mxCell>
            </root>
        </mxGraphModel>
    </diagram>
</mxfile>